# xmcd CD database file
#
# Track frame offsets:
#	150
#	14514
#	28030
#	41121
#	54724
#	67454
#	81955
#	95629
#	107629
#	119361
#	132370
#	145988
#	158854
#	169207
#	181741
#	193772
#	206033
#	218512
#	230816
#	242661
#	262266
#	272716
#	282467
#	296163
#	311074
#	323268
#
# Disc length: 4469 seconds
#
# Revision: 0
# Processed by: cddbd v1.5.2PL0 Copyright (c) Steve Scherf et al.
# Submitted via: CDex 1.51
#
DISCID=9f11731a
DTITLE=Various Artist - Legends Of The Blues Volume 1
DYEAR=2000
DGENRE=Jazz
TTITLE0=Bessie Smith - St. Louis Blues
TTITLE1=Blind Lemon Jefferson - Match Box Blues
TTITLE2=Mississippi John Hurt - Ain't No Tellin'
TTITLE3=Blind Willie Johnson - Lord, I Just Can't Keep From Cryin'
TTITLE4=Bo Carter - Pigmeat Is What I Crave
TTITLE5=Blind Willie McTell - Southern Can Is Mine
TTITLE6=Lonnie Johnson - Low Down St. Louis Blues
TTITLE7=Charley Patton - Revenue Man Blues
TTITLE8=Leroy Carr - Stormy Night Blues
TTITLE9=Josh White - I Believe I'll Have A Change
TTITLE10=Leadbelly - Fort Worth And Dallas Blues
TTITLE11=Peetie Wheatstraw - Sweet Home Blues
TTITLE12=Robert Johnson - Stop Breakin' Down Blues
TTITLE13=Blind Boy Fuller - Truckin' My Blues Away No. 2
TTITLE14=Big Bill Broonzy - Spreadin' Snakes Blues
TTITLE15=Memphis Minnie - Nothing In Ramblin'
TTITLE16=Bukka White - Fixin' To Die Blues
TTITLE17=Muddy Waters - Hard Day Blues
TTITLE18=Big Joe Williams - Don't You Leave Me Here
TTITLE19=Son House - Death Letter
TTITLE20=Big Bill Broonzy - I Wonder When I'll Be Called A Man
TTITLE21=Odetta - Another Man Done Gone
TTITLE22=Barbara Dane - Trouble In Mind
TTITLE23=Gary Davis - If I Had My Way
TTITLE24=Brownie McGhee and Sonny Terry - If You Lose Your Money
TTITLE25=Elizabeth Cotten - Freight Train
EXTD=YEAR: 2000
EXTT0=
EXTT1=
EXTT2=
EXTT3=
EXTT4=
EXTT5=
EXTT6=
EXTT7=
EXTT8=
EXTT9=
EXTT10=
EXTT11=
EXTT12=
EXTT13=
EXTT14=
EXTT15=
EXTT16=
EXTT17=
EXTT18=
EXTT19=
EXTT20=
EXTT21=
EXTT22=
EXTT23=
EXTT24=
EXTT25=
PLAYORDER=
